<svg width="22" height="23" viewBox="0 0 22 23" fill="none" xmlns="http://www.w3.org/2000/svg">
<g clip-path="url(#clip0_5_41)">
<path d="M14.3335 20.181V16.638C14.3665 16.2014 14.3099 15.7626 14.1675 15.3506C14.025 14.9386 13.8001 14.5629 13.5075 14.2485C16.2669 13.9281 19.1669 12.8386 19.1669 7.83987C19.1667 6.56165 18.6947 5.33245 17.8487 4.40668C18.2493 3.28838 18.221 2.05229 17.7696 0.955178C17.7696 0.955178 16.7326 0.634747 14.3335 2.31014C12.3194 1.74144 10.1962 1.74144 8.18203 2.31014C5.78294 0.634747 4.74597 0.955178 4.74597 0.955178C4.29461 2.05229 4.26628 3.28838 4.66688 4.40668C3.81457 5.33931 3.34213 6.57962 3.3487 7.86733C3.3487 12.8294 6.2487 13.9189 9.00809 14.276C8.71897 14.5872 8.49599 14.9584 8.35367 15.3653C8.21134 15.7723 8.15286 16.2059 8.18203 16.638V20.181M8.18203 17.4345C3.78809 18.8078 3.78809 15.1457 2.03052 14.6879L8.18203 17.4345Z" stroke="#6272A4" stroke-width="2" stroke-linecap="round" stroke-linejoin="round"/>
</g>
<defs>
<clipPath id="clip0_5_41">
<rect width="21.0909" height="21.9724" fill="white" transform="translate(0.272949 0.0396576)"/>
</clipPath>
</defs>
</svg>
