<svg width="22" height="23" viewBox="0 0 22 23" fill="none" xmlns="http://www.w3.org/2000/svg">
<path d="M14.3335 7.64655C15.7319 7.64655 17.0731 8.22528 18.0619 9.25544C19.0507 10.2856 19.6062 11.6828 19.6062 13.1396V19.5483H16.0911V13.1396C16.0911 12.654 15.9059 12.1883 15.5763 11.8449C15.2467 11.5015 14.7997 11.3086 14.3335 11.3086C13.8674 11.3086 13.4203 11.5015 13.0907 11.8449C12.7611 12.1883 12.5759 12.654 12.5759 13.1396V19.5483H9.06079V13.1396C9.06079 11.6828 9.61631 10.2856 10.6051 9.25544C11.594 8.22528 12.9351 7.64655 14.3335 7.64655V7.64655Z" stroke="#6272A4" stroke-width="2" stroke-linecap="round" stroke-linejoin="round"/>
<path d="M5.54567 8.56206H2.03052V19.5483H5.54567V8.56206Z" stroke="#6272A4" stroke-width="2" stroke-linecap="round" stroke-linejoin="round"/>
<path d="M3.78809 5.81551C4.75878 5.81551 5.54567 4.99573 5.54567 3.98448C5.54567 2.97322 4.75878 2.15344 3.78809 2.15344C2.81741 2.15344 2.03052 2.97322 2.03052 3.98448C2.03052 4.99573 2.81741 5.81551 3.78809 5.81551Z" stroke="#6272A4" stroke-width="2" stroke-linecap="round" stroke-linejoin="round"/>
</svg>
