<svg width="22" height="23" viewBox="0 0 22 23" fill="none" xmlns="http://www.w3.org/2000/svg">
<path d="M17.8487 7.16551H3.78809C2.81741 7.16551 2.03052 7.98529 2.03052 8.99655V18.1517C2.03052 19.163 2.81741 19.9828 3.78809 19.9828H17.8487C18.8194 19.9828 19.6063 19.163 19.6063 18.1517V8.99655C19.6063 7.98529 18.8194 7.16551 17.8487 7.16551Z" stroke="#6272A4" stroke-width="2" stroke-linecap="round" stroke-linejoin="round"/>
<path d="M14.3335 19.9828V5.33448C14.3335 4.84886 14.1484 4.38313 13.8187 4.03975C13.4891 3.69636 13.0421 3.50345 12.5759 3.50345H9.0608C8.59466 3.50345 8.14761 3.69636 7.81801 4.03975C7.4884 4.38313 7.30322 4.84886 7.30322 5.33448V19.9828" stroke="#6272A4" stroke-width="2" stroke-linecap="round" stroke-linejoin="round"/>
</svg>
