<svg width="22" height="22" viewBox="0 0 22 22" fill="none" xmlns="http://www.w3.org/2000/svg">
<g clip-path="url(#clip0_5_57)">
<path d="M20.2122 2.75689C19.3707 3.37531 18.4389 3.84829 17.4528 4.15764C16.9236 3.52365 16.2202 3.0743 15.4378 2.87035C14.6554 2.66641 13.8318 2.71771 13.0783 3.01732C12.3248 3.31693 11.6778 3.85039 11.2249 4.54556C10.7719 5.24072 10.5348 6.06405 10.5456 6.90419V7.8197C9.00122 7.86142 7.47093 7.5046 6.091 6.781C4.71107 6.05741 3.52434 4.98951 2.63648 3.67241C2.63648 3.67241 -0.878669 11.9121 7.03042 15.5741C5.22058 16.854 3.06459 17.4957 0.878906 17.4052C8.788 21.9828 18.4547 17.4052 18.4547 6.87672C18.4539 6.62171 18.4303 6.36732 18.3844 6.11684C19.2813 5.19537 19.9142 4.03195 20.2122 2.75689V2.75689Z" stroke="#6272A4" stroke-width="2" stroke-linecap="round" stroke-linejoin="round"/>
</g>
<defs>
<clipPath id="clip0_5_57">
<rect width="21.0909" height="21.9724" fill="white" transform="translate(0 0.0103455)"/>
</clipPath>
</defs>
</svg>
